<svg width="577" height="327" viewBox="0 0 577 327" fill="none" xmlns="http://www.w3.org/2000/svg">
<rect width="577" height="327" fill="#E8F5E9"/>
<g clip-path="url(#clip0_2393_3991)">
<g clip-path="url(#clip1_2393_3991)">
<circle cx="116.453" cy="110.454" r="19.9591" fill="white" fill-opacity="0.75"/>
<circle cx="116.453" cy="110.454" r="21.2065" stroke="white" stroke-opacity="0.75" stroke-width="2.49488"/>
</g>
<g clip-path="url(#clip2_2393_3991)">
<g filter="url(#filter0_ddd_2393_3991)">
<path d="M146.393 121.707C146.393 106.536 158.691 94.2373 173.862 94.2373H348.29V119.237C348.29 135.772 334.886 149.176 318.352 149.176H173.862C158.691 149.176 146.393 136.877 146.393 121.707Z" fill="#FFC107"/>
<path d="M173.291 115.737H174.95V121.099H181.516V115.737H183.176V128.207H181.516V122.496H174.95V128.207H173.291V115.737ZM186.733 123.701C186.733 124.248 186.803 124.737 186.942 125.168C187.094 125.587 187.297 125.942 187.553 126.233C187.81 126.513 188.106 126.728 188.444 126.879C188.793 127.031 189.16 127.106 189.544 127.106C189.929 127.106 190.29 127.031 190.627 126.879C190.976 126.728 191.279 126.513 191.535 126.233C191.791 125.942 191.989 125.587 192.129 125.168C192.28 124.737 192.356 124.248 192.356 123.701C192.356 123.154 192.28 122.67 192.129 122.251C191.989 121.82 191.791 121.46 191.535 121.168C191.279 120.877 190.976 120.656 190.627 120.505C190.29 120.353 189.929 120.278 189.544 120.278C189.16 120.278 188.793 120.353 188.444 120.505C188.106 120.656 187.81 120.877 187.553 121.168C187.297 121.46 187.094 121.82 186.942 122.251C186.803 122.67 186.733 123.154 186.733 123.701ZM185.161 123.701C185.161 123.037 185.254 122.42 185.44 121.85C185.627 121.267 185.906 120.767 186.279 120.348C186.651 119.917 187.111 119.579 187.658 119.335C188.205 119.09 188.834 118.968 189.544 118.968C190.266 118.968 190.895 119.09 191.431 119.335C191.978 119.579 192.438 119.917 192.81 120.348C193.183 120.767 193.462 121.267 193.648 121.85C193.835 122.42 193.928 123.037 193.928 123.701C193.928 124.364 193.835 124.981 193.648 125.552C193.462 126.122 193.183 126.623 192.81 127.054C192.438 127.473 191.978 127.805 191.431 128.049C190.895 128.282 190.266 128.399 189.544 128.399C188.834 128.399 188.205 128.282 187.658 128.049C187.111 127.805 186.651 127.473 186.279 127.054C185.906 126.623 185.627 126.122 185.44 125.552C185.254 124.981 185.161 124.364 185.161 123.701ZM195.765 115.737H197.25V128.207H195.765V115.737ZM207.548 128.172C207.292 128.323 206.937 128.399 206.483 128.399C206.099 128.399 205.79 128.294 205.557 128.084C205.336 127.863 205.225 127.508 205.225 127.019C204.818 127.508 204.341 127.863 203.793 128.084C203.258 128.294 202.676 128.399 202.047 128.399C201.639 128.399 201.249 128.352 200.877 128.259C200.516 128.166 200.202 128.02 199.934 127.822C199.666 127.624 199.451 127.368 199.288 127.054C199.136 126.728 199.061 126.338 199.061 125.884C199.061 125.372 199.148 124.952 199.323 124.626C199.497 124.3 199.724 124.038 200.004 123.84C200.295 123.631 200.621 123.474 200.982 123.369C201.354 123.264 201.733 123.177 202.117 123.107C202.524 123.025 202.909 122.967 203.269 122.932C203.642 122.886 203.968 122.828 204.247 122.758C204.527 122.676 204.748 122.566 204.911 122.426C205.074 122.275 205.156 122.059 205.156 121.78C205.156 121.454 205.092 121.192 204.963 120.994C204.847 120.796 204.69 120.645 204.492 120.54C204.306 120.435 204.09 120.365 203.846 120.33C203.613 120.295 203.38 120.278 203.147 120.278C202.519 120.278 201.995 120.4 201.575 120.645C201.156 120.877 200.929 121.326 200.894 121.989H199.41C199.433 121.43 199.55 120.959 199.759 120.575C199.969 120.19 200.248 119.882 200.597 119.649C200.947 119.405 201.343 119.23 201.785 119.125C202.239 119.02 202.722 118.968 203.235 118.968C203.642 118.968 204.044 118.997 204.44 119.055C204.847 119.114 205.214 119.236 205.54 119.422C205.866 119.597 206.128 119.847 206.326 120.173C206.524 120.499 206.623 120.924 206.623 121.448V126.093C206.623 126.443 206.64 126.699 206.675 126.862C206.722 127.025 206.861 127.106 207.094 127.106C207.222 127.106 207.374 127.077 207.548 127.019V128.172ZM205.138 123.544C204.952 123.683 204.707 123.788 204.405 123.858C204.102 123.916 203.782 123.969 203.444 124.015C203.118 124.05 202.786 124.097 202.449 124.155C202.111 124.201 201.808 124.283 201.541 124.399C201.273 124.516 201.052 124.685 200.877 124.906C200.714 125.115 200.632 125.406 200.632 125.779C200.632 126.024 200.679 126.233 200.772 126.408C200.877 126.571 201.005 126.705 201.156 126.809C201.319 126.914 201.506 126.99 201.715 127.036C201.925 127.083 202.146 127.106 202.379 127.106C202.868 127.106 203.287 127.042 203.636 126.914C203.985 126.774 204.271 126.606 204.492 126.408C204.713 126.198 204.876 125.977 204.981 125.744C205.086 125.5 205.138 125.273 205.138 125.063V123.544ZM209.262 126.268H211.2V128.032C211.2 128.696 211.049 129.266 210.746 129.743C210.443 130.221 209.954 130.558 209.279 130.756V129.883C209.477 129.813 209.64 129.708 209.768 129.569C209.908 129.441 210.018 129.295 210.1 129.132C210.181 128.981 210.234 128.824 210.257 128.661C210.292 128.498 210.304 128.346 210.292 128.207H209.262V126.268ZM219.559 125.36C219.571 125.686 219.647 125.965 219.786 126.198C219.926 126.419 220.106 126.6 220.328 126.74C220.56 126.868 220.817 126.961 221.096 127.019C221.387 127.077 221.684 127.106 221.987 127.106C222.22 127.106 222.464 127.089 222.72 127.054C222.976 127.019 223.209 126.955 223.419 126.862C223.64 126.769 223.82 126.635 223.96 126.46C224.1 126.274 224.17 126.041 224.17 125.762C224.17 125.377 224.024 125.086 223.733 124.888C223.442 124.69 223.075 124.533 222.633 124.417C222.202 124.289 221.731 124.178 221.218 124.085C220.706 123.98 220.229 123.84 219.786 123.666C219.355 123.48 218.995 123.223 218.703 122.897C218.412 122.571 218.267 122.117 218.267 121.535C218.267 121.081 218.366 120.691 218.564 120.365C218.773 120.039 219.035 119.777 219.35 119.579C219.676 119.37 220.037 119.218 220.432 119.125C220.84 119.02 221.242 118.968 221.637 118.968C222.15 118.968 222.621 119.015 223.052 119.108C223.483 119.189 223.861 119.341 224.187 119.562C224.525 119.771 224.793 120.062 224.991 120.435C225.188 120.796 225.305 121.25 225.34 121.797H223.855C223.832 121.506 223.756 121.267 223.628 121.081C223.5 120.883 223.337 120.726 223.139 120.61C222.941 120.493 222.72 120.412 222.476 120.365C222.243 120.307 222.004 120.278 221.76 120.278C221.538 120.278 221.311 120.295 221.079 120.33C220.857 120.365 220.654 120.429 220.467 120.522C220.281 120.604 220.13 120.72 220.013 120.872C219.897 121.011 219.839 121.198 219.839 121.43C219.839 121.687 219.926 121.902 220.101 122.077C220.287 122.24 220.52 122.379 220.799 122.496C221.079 122.601 221.393 122.694 221.742 122.775C222.091 122.845 222.441 122.921 222.79 123.002C223.163 123.084 223.524 123.183 223.873 123.299C224.234 123.416 224.548 123.573 224.816 123.771C225.095 123.957 225.317 124.196 225.48 124.487C225.654 124.778 225.742 125.139 225.742 125.569C225.742 126.117 225.625 126.571 225.392 126.932C225.171 127.293 224.874 127.584 224.502 127.805C224.141 128.026 223.727 128.177 223.262 128.259C222.808 128.352 222.353 128.399 221.899 128.399C221.399 128.399 220.921 128.346 220.467 128.241C220.013 128.137 219.612 127.968 219.262 127.735C218.913 127.491 218.634 127.176 218.424 126.792C218.214 126.396 218.098 125.919 218.075 125.36H219.559ZM228.466 123.701C228.466 124.248 228.536 124.737 228.675 125.168C228.827 125.587 229.031 125.942 229.287 126.233C229.543 126.513 229.84 126.728 230.177 126.879C230.527 127.031 230.893 127.106 231.278 127.106C231.662 127.106 232.023 127.031 232.36 126.879C232.71 126.728 233.012 126.513 233.269 126.233C233.525 125.942 233.723 125.587 233.862 125.168C234.014 124.737 234.089 124.248 234.089 123.701C234.089 123.154 234.014 122.67 233.862 122.251C233.723 121.82 233.525 121.46 233.269 121.168C233.012 120.877 232.71 120.656 232.36 120.505C232.023 120.353 231.662 120.278 231.278 120.278C230.893 120.278 230.527 120.353 230.177 120.505C229.84 120.656 229.543 120.877 229.287 121.168C229.031 121.46 228.827 121.82 228.675 122.251C228.536 122.67 228.466 123.154 228.466 123.701ZM226.894 123.701C226.894 123.037 226.987 122.42 227.174 121.85C227.36 121.267 227.639 120.767 228.012 120.348C228.384 119.917 228.844 119.579 229.392 119.335C229.939 119.09 230.567 118.968 231.278 118.968C232 118.968 232.628 119.09 233.164 119.335C233.711 119.579 234.171 119.917 234.543 120.348C234.916 120.767 235.195 121.267 235.382 121.85C235.568 122.42 235.661 123.037 235.661 123.701C235.661 124.364 235.568 124.981 235.382 125.552C235.195 126.122 234.916 126.623 234.543 127.054C234.171 127.473 233.711 127.805 233.164 128.049C232.628 128.282 232 128.399 231.278 128.399C230.567 128.399 229.939 128.282 229.392 128.049C228.844 127.805 228.384 127.473 228.012 127.054C227.639 126.623 227.36 126.122 227.174 125.552C226.987 124.981 226.894 124.364 226.894 123.701ZM240.957 129.412C240.782 129.854 240.607 130.227 240.433 130.529C240.27 130.832 240.083 131.076 239.874 131.263C239.676 131.461 239.449 131.6 239.193 131.682C238.948 131.775 238.663 131.822 238.337 131.822C238.162 131.822 237.988 131.81 237.813 131.787C237.638 131.763 237.47 131.723 237.307 131.664V130.302C237.435 130.36 237.58 130.407 237.743 130.442C237.918 130.489 238.063 130.512 238.18 130.512C238.483 130.512 238.733 130.436 238.931 130.285C239.14 130.145 239.298 129.941 239.402 129.674L240.014 128.154L236.433 119.178H238.11L240.747 126.565H240.782L243.314 119.178H244.886L240.957 129.412ZM253.065 119.178H254.864V120.487H253.065V126.093C253.065 126.268 253.077 126.408 253.1 126.513C253.135 126.617 253.193 126.699 253.274 126.757C253.356 126.815 253.467 126.856 253.606 126.879C253.758 126.891 253.95 126.897 254.183 126.897H254.864V128.207H253.729C253.344 128.207 253.013 128.183 252.733 128.137C252.465 128.078 252.244 127.98 252.069 127.84C251.906 127.7 251.784 127.502 251.703 127.246C251.621 126.99 251.58 126.652 251.58 126.233V120.487H250.044V119.178H251.58V116.471H253.065V119.178ZM263.988 128.207H262.59V126.774H262.555C262.241 127.333 261.839 127.747 261.35 128.014C260.861 128.271 260.285 128.399 259.621 128.399C259.028 128.399 258.533 128.323 258.137 128.172C257.741 128.009 257.421 127.782 257.177 127.491C256.932 127.199 256.757 126.856 256.653 126.46C256.559 126.053 256.513 125.604 256.513 125.115V119.178H257.997V125.29C257.997 125.849 258.16 126.291 258.486 126.617C258.812 126.943 259.261 127.106 259.831 127.106C260.285 127.106 260.675 127.036 261.001 126.897C261.339 126.757 261.618 126.559 261.839 126.303C262.061 126.047 262.224 125.75 262.328 125.412C262.445 125.063 262.503 124.685 262.503 124.277V119.178H263.988V128.207ZM279.076 128.172C278.82 128.323 278.465 128.399 278.011 128.399C277.627 128.399 277.318 128.294 277.085 128.084C276.864 127.863 276.754 127.508 276.754 127.019C276.346 127.508 275.869 127.863 275.322 128.084C274.786 128.294 274.204 128.399 273.575 128.399C273.168 128.399 272.778 128.352 272.405 128.259C272.044 128.166 271.73 128.02 271.462 127.822C271.194 127.624 270.979 127.368 270.816 127.054C270.664 126.728 270.589 126.338 270.589 125.884C270.589 125.372 270.676 124.952 270.851 124.626C271.025 124.3 271.252 124.038 271.532 123.84C271.823 123.631 272.149 123.474 272.51 123.369C272.882 123.264 273.261 123.177 273.645 123.107C274.052 123.025 274.437 122.967 274.798 122.932C275.17 122.886 275.496 122.828 275.776 122.758C276.055 122.676 276.276 122.566 276.439 122.426C276.602 122.275 276.684 122.059 276.684 121.78C276.684 121.454 276.62 121.192 276.492 120.994C276.375 120.796 276.218 120.645 276.02 120.54C275.834 120.435 275.618 120.365 275.374 120.33C275.141 120.295 274.908 120.278 274.675 120.278C274.047 120.278 273.523 120.4 273.104 120.645C272.684 120.877 272.457 121.326 272.422 121.989H270.938C270.961 121.43 271.078 120.959 271.287 120.575C271.497 120.19 271.776 119.882 272.126 119.649C272.475 119.405 272.871 119.23 273.313 119.125C273.767 119.02 274.25 118.968 274.763 118.968C275.17 118.968 275.572 118.997 275.968 119.055C276.375 119.114 276.742 119.236 277.068 119.422C277.394 119.597 277.656 119.847 277.854 120.173C278.052 120.499 278.151 120.924 278.151 121.448V126.093C278.151 126.443 278.168 126.699 278.203 126.862C278.25 127.025 278.389 127.106 278.622 127.106C278.75 127.106 278.902 127.077 279.076 127.019V128.172ZM276.666 123.544C276.48 123.683 276.235 123.788 275.933 123.858C275.63 123.916 275.31 123.969 274.972 124.015C274.646 124.05 274.314 124.097 273.977 124.155C273.639 124.201 273.336 124.283 273.069 124.399C272.801 124.516 272.58 124.685 272.405 124.906C272.242 125.115 272.161 125.406 272.161 125.779C272.161 126.024 272.207 126.233 272.3 126.408C272.405 126.571 272.533 126.705 272.684 126.809C272.847 126.914 273.034 126.99 273.243 127.036C273.453 127.083 273.674 127.106 273.907 127.106C274.396 127.106 274.815 127.042 275.164 126.914C275.514 126.774 275.799 126.606 276.02 126.408C276.241 126.198 276.404 125.977 276.509 125.744C276.614 125.5 276.666 125.273 276.666 125.063V123.544ZM288.247 127.438C288.247 128.917 287.909 130.023 287.234 130.756C286.559 131.49 285.499 131.857 284.056 131.857C283.636 131.857 283.206 131.81 282.763 131.717C282.332 131.624 281.937 131.472 281.576 131.263C281.226 131.053 280.935 130.78 280.702 130.442C280.47 130.104 280.341 129.691 280.318 129.202H281.803C281.814 129.47 281.896 129.697 282.047 129.883C282.21 130.069 282.402 130.221 282.623 130.337C282.856 130.454 283.107 130.535 283.374 130.582C283.642 130.64 283.898 130.669 284.143 130.669C284.632 130.669 285.045 130.582 285.383 130.407C285.72 130.244 286 130.011 286.221 129.708C286.442 129.417 286.6 129.062 286.693 128.643C286.797 128.224 286.85 127.764 286.85 127.263V126.67H286.815C286.559 127.229 286.169 127.642 285.645 127.91C285.133 128.166 284.585 128.294 284.003 128.294C283.328 128.294 282.74 128.172 282.239 127.927C281.739 127.683 281.319 127.357 280.982 126.949C280.644 126.53 280.388 126.047 280.213 125.5C280.05 124.941 279.969 124.353 279.969 123.736C279.969 123.2 280.039 122.653 280.178 122.094C280.318 121.524 280.551 121.011 280.877 120.557C281.203 120.092 281.634 119.713 282.169 119.422C282.705 119.119 283.363 118.968 284.143 118.968C284.713 118.968 285.237 119.096 285.715 119.352C286.192 119.597 286.565 119.969 286.832 120.47H286.85V119.178H288.247V127.438ZM284.09 127.002C284.579 127.002 284.993 126.903 285.33 126.705C285.68 126.495 285.959 126.227 286.169 125.901C286.378 125.564 286.53 125.185 286.623 124.766C286.728 124.347 286.78 123.928 286.78 123.509C286.78 123.113 286.733 122.723 286.64 122.339C286.547 121.954 286.396 121.611 286.186 121.308C285.988 120.994 285.726 120.744 285.4 120.557C285.074 120.371 284.678 120.278 284.213 120.278C283.735 120.278 283.328 120.371 282.99 120.557C282.653 120.732 282.373 120.971 282.152 121.273C281.942 121.576 281.785 121.925 281.68 122.321C281.587 122.717 281.541 123.13 281.541 123.561C281.541 123.969 281.581 124.376 281.663 124.784C281.744 125.191 281.884 125.564 282.082 125.901C282.28 126.227 282.542 126.495 282.868 126.705C283.194 126.903 283.601 127.002 284.09 127.002ZM296.756 122.828C296.733 122.478 296.651 122.146 296.511 121.832C296.383 121.518 296.203 121.25 295.97 121.029C295.749 120.796 295.481 120.615 295.167 120.487C294.864 120.348 294.526 120.278 294.154 120.278C293.769 120.278 293.42 120.348 293.106 120.487C292.803 120.615 292.541 120.796 292.32 121.029C292.099 121.262 291.924 121.535 291.796 121.85C291.668 122.152 291.592 122.478 291.569 122.828H296.756ZM298.188 125.342C297.99 126.355 297.553 127.118 296.878 127.63C296.203 128.143 295.353 128.399 294.328 128.399C293.606 128.399 292.978 128.282 292.442 128.049C291.918 127.817 291.476 127.491 291.115 127.071C290.754 126.652 290.48 126.152 290.294 125.569C290.119 124.987 290.02 124.353 289.997 123.666C289.997 122.979 290.102 122.35 290.312 121.78C290.521 121.209 290.812 120.714 291.185 120.295C291.569 119.876 292.017 119.55 292.53 119.317C293.053 119.084 293.624 118.968 294.241 118.968C295.044 118.968 295.708 119.137 296.232 119.474C296.767 119.8 297.192 120.22 297.507 120.732C297.833 121.244 298.054 121.803 298.17 122.408C298.299 123.014 298.351 123.59 298.328 124.137H291.569C291.557 124.533 291.604 124.912 291.709 125.273C291.813 125.622 291.982 125.936 292.215 126.216C292.448 126.483 292.745 126.699 293.106 126.862C293.467 127.025 293.892 127.106 294.381 127.106C295.009 127.106 295.522 126.961 295.918 126.67C296.325 126.379 296.593 125.936 296.721 125.342H298.188ZM299.866 119.178H301.264V120.61H301.298C301.916 119.515 302.894 118.968 304.232 118.968C304.826 118.968 305.321 119.049 305.717 119.212C306.113 119.375 306.433 119.603 306.677 119.894C306.922 120.185 307.091 120.534 307.184 120.941C307.289 121.337 307.341 121.78 307.341 122.269V128.207H305.857V122.094C305.857 121.535 305.694 121.093 305.368 120.767C305.042 120.441 304.593 120.278 304.023 120.278C303.569 120.278 303.173 120.348 302.835 120.487C302.509 120.627 302.236 120.825 302.014 121.081C301.793 121.337 301.624 121.64 301.508 121.989C301.403 122.327 301.351 122.7 301.351 123.107V128.207H299.866V119.178ZM311.631 119.178H313.43V120.487H311.631V126.093C311.631 126.268 311.643 126.408 311.666 126.513C311.701 126.617 311.759 126.699 311.841 126.757C311.922 126.815 312.033 126.856 312.173 126.879C312.324 126.891 312.516 126.897 312.749 126.897H313.43V128.207H312.295C311.911 128.207 311.579 128.183 311.3 128.137C311.032 128.078 310.811 127.98 310.636 127.84C310.473 127.7 310.351 127.502 310.269 127.246C310.188 126.99 310.147 126.652 310.147 126.233V120.487H308.61V119.178H310.147V116.471H311.631V119.178ZM321.349 122.828C321.326 122.478 321.244 122.146 321.104 121.832C320.976 121.518 320.796 121.25 320.563 121.029C320.342 120.796 320.074 120.615 319.76 120.487C319.457 120.348 319.119 120.278 318.747 120.278C318.363 120.278 318.013 120.348 317.699 120.487C317.396 120.615 317.134 120.796 316.913 121.029C316.692 121.262 316.517 121.535 316.389 121.85C316.261 122.152 316.185 122.478 316.162 122.828H321.349ZM322.781 125.342C322.583 126.355 322.146 127.118 321.471 127.63C320.796 128.143 319.946 128.399 318.921 128.399C318.2 128.399 317.571 128.282 317.035 128.049C316.511 127.817 316.069 127.491 315.708 127.071C315.347 126.652 315.073 126.152 314.887 125.569C314.713 124.987 314.614 124.353 314.59 123.666C314.59 122.979 314.695 122.35 314.905 121.78C315.114 121.209 315.405 120.714 315.778 120.295C316.162 119.876 316.61 119.55 317.123 119.317C317.647 119.084 318.217 118.968 318.834 118.968C319.637 118.968 320.301 119.137 320.825 119.474C321.361 119.8 321.786 120.22 322.1 120.732C322.426 121.244 322.647 121.803 322.764 122.408C322.892 123.014 322.944 123.59 322.921 124.137H316.162C316.15 124.533 316.197 124.912 316.302 125.273C316.407 125.622 316.575 125.936 316.808 126.216C317.041 126.483 317.338 126.699 317.699 126.862C318.06 127.025 318.485 127.106 318.974 127.106C319.603 127.106 320.115 126.961 320.511 126.67C320.918 126.379 321.186 125.936 321.314 125.342H322.781Z" fill="#070707"/>
</g>
</g>
</g>
<path d="M229.27 223.626C223.33 223.626 220.225 227.136 217.795 229.971C215.298 232.806 213.677 234.426 210.37 234.426C206.995 234.426 205.442 232.806 202.945 229.971C200.447 227.136 197.41 223.626 191.47 223.626C185.53 223.626 182.425 227.136 179.995 229.971C177.498 232.806 175.878 234.426 172.57 234.426C169.263 234.426 167.643 232.806 165.145 229.971C162.647 227.136 159.61 223.626 153.67 223.626C147.73 223.626 144.625 227.136 142.195 229.971C139.698 232.806 138.078 234.426 134.77 234.426C131.395 234.426 129.843 232.806 127.345 229.971C124.848 227.136 121.81 223.626 115.87 223.626C109.93 223.626 106.825 227.136 104.395 229.971C101.628 232.806 100.075 234.426 96.7 234.426C95.215 234.426 94 235.641 94 237.126C94 238.611 95.215 239.826 96.7 239.826C102.64 239.826 105.745 236.316 108.175 233.481C110.673 230.646 112.292 229.026 115.6 229.026C118.975 229.026 120.528 230.646 123.025 233.481C125.523 236.316 128.56 239.826 134.5 239.826C140.44 239.826 143.545 236.316 145.975 233.481C148.472 230.646 150.093 229.026 153.4 229.026C156.708 229.026 158.327 230.646 160.825 233.481C163.323 236.316 166.36 239.826 172.3 239.826C178.24 239.826 181.345 236.316 183.775 233.481C186.272 230.646 187.893 229.026 191.2 229.026C194.575 229.026 196.128 230.646 198.625 233.481C201.123 236.316 204.16 239.826 210.1 239.826C216.04 239.826 219.145 236.316 221.575 233.481C224.073 230.646 225.693 229.026 229 229.026C232.375 229.026 233.928 230.646 236.425 233.481C238.923 236.316 241.96 239.826 247.9 239.826C249.385 239.826 250.6 238.611 250.6 237.126C250.6 235.641 249.385 234.426 247.9 234.426C244.525 234.426 242.973 232.806 240.475 229.971C238.315 227.136 235.277 223.626 229.27 223.626Z" fill="white"/>
<g clip-path="url(#clip3_2393_3991)">
<g clip-path="url(#clip4_2393_3991)">
<g filter="url(#filter1_ddd_2393_3991)">
<path d="M295.6 206.12C295.6 190.949 307.898 178.65 323.069 178.65H428.497V203.65C428.497 220.185 415.093 233.589 398.559 233.589H323.069C307.898 233.589 295.6 221.291 295.6 206.12Z" fill="#FF6B3D"/>
<path d="M322.127 200.15H323.786V205.512H330.352V200.15H332.011V212.62H330.352V206.909H323.786V212.62H322.127V200.15ZM335.568 208.114C335.568 208.661 335.638 209.15 335.778 209.581C335.929 210 336.133 210.355 336.389 210.646C336.645 210.926 336.942 211.141 337.28 211.292C337.629 211.444 337.996 211.519 338.38 211.519C338.764 211.519 339.125 211.444 339.463 211.292C339.812 211.141 340.115 210.926 340.371 210.646C340.627 210.355 340.825 210 340.965 209.581C341.116 209.15 341.192 208.661 341.192 208.114C341.192 207.567 341.116 207.083 340.965 206.664C340.825 206.234 340.627 205.873 340.371 205.582C340.115 205.29 339.812 205.069 339.463 204.918C339.125 204.767 338.764 204.691 338.38 204.691C337.996 204.691 337.629 204.767 337.28 204.918C336.942 205.069 336.645 205.29 336.389 205.582C336.133 205.873 335.929 206.234 335.778 206.664C335.638 207.083 335.568 207.567 335.568 208.114ZM333.997 208.114C333.997 207.45 334.09 206.833 334.276 206.263C334.462 205.681 334.742 205.18 335.114 204.761C335.487 204.33 335.947 203.992 336.494 203.748C337.041 203.503 337.67 203.381 338.38 203.381C339.102 203.381 339.731 203.503 340.266 203.748C340.814 203.992 341.273 204.33 341.646 204.761C342.019 205.18 342.298 205.681 342.484 206.263C342.671 206.833 342.764 207.45 342.764 208.114C342.764 208.778 342.671 209.395 342.484 209.965C342.298 210.536 342.019 211.036 341.646 211.467C341.273 211.886 340.814 212.218 340.266 212.462C339.731 212.695 339.102 212.812 338.38 212.812C337.67 212.812 337.041 212.695 336.494 212.462C335.947 212.218 335.487 211.886 335.114 211.467C334.742 211.036 334.462 210.536 334.276 209.965C334.09 209.395 333.997 208.778 333.997 208.114ZM344.601 200.15H346.086V212.62H344.601V200.15ZM356.384 212.585C356.128 212.736 355.773 212.812 355.319 212.812C354.935 212.812 354.626 212.707 354.393 212.497C354.172 212.276 354.061 211.921 354.061 211.432C353.654 211.921 353.176 212.276 352.629 212.497C352.094 212.707 351.512 212.812 350.883 212.812C350.475 212.812 350.085 212.765 349.713 212.672C349.352 212.579 349.037 212.433 348.77 212.235C348.502 212.037 348.286 211.781 348.123 211.467C347.972 211.141 347.896 210.751 347.896 210.297C347.896 209.785 347.984 209.365 348.158 209.039C348.333 208.713 348.56 208.452 348.84 208.254C349.131 208.044 349.457 207.887 349.818 207.782C350.19 207.677 350.568 207.59 350.953 207.52C351.36 207.439 351.744 207.38 352.105 207.345C352.478 207.299 352.804 207.241 353.083 207.171C353.363 207.089 353.584 206.979 353.747 206.839C353.91 206.688 353.991 206.472 353.991 206.193C353.991 205.867 353.927 205.605 353.799 205.407C353.683 205.209 353.526 205.058 353.328 204.953C353.142 204.848 352.926 204.778 352.682 204.743C352.449 204.708 352.216 204.691 351.983 204.691C351.354 204.691 350.83 204.813 350.411 205.058C349.992 205.29 349.765 205.739 349.73 206.402H348.246C348.269 205.844 348.385 205.372 348.595 204.988C348.805 204.604 349.084 204.295 349.433 204.062C349.783 203.818 350.178 203.643 350.621 203.538C351.075 203.433 351.558 203.381 352.07 203.381C352.478 203.381 352.88 203.41 353.275 203.468C353.683 203.527 354.05 203.649 354.376 203.835C354.702 204.01 354.964 204.26 355.162 204.586C355.359 204.912 355.458 205.337 355.458 205.861V210.506C355.458 210.856 355.476 211.112 355.511 211.275C355.557 211.438 355.697 211.519 355.93 211.519C356.058 211.519 356.209 211.49 356.384 211.432V212.585ZM353.974 207.957C353.788 208.096 353.543 208.201 353.24 208.271C352.938 208.329 352.618 208.382 352.28 208.428C351.954 208.463 351.622 208.51 351.284 208.568C350.947 208.615 350.644 208.696 350.376 208.812C350.109 208.929 349.887 209.098 349.713 209.319C349.55 209.528 349.468 209.82 349.468 210.192C349.468 210.437 349.515 210.646 349.608 210.821C349.713 210.984 349.841 211.118 349.992 211.222C350.155 211.327 350.341 211.403 350.551 211.45C350.761 211.496 350.982 211.519 351.215 211.519C351.704 211.519 352.123 211.455 352.472 211.327C352.821 211.188 353.107 211.019 353.328 210.821C353.549 210.611 353.712 210.39 353.817 210.157C353.922 209.913 353.974 209.686 353.974 209.476V207.957ZM365.764 212.585C365.508 212.736 365.153 212.812 364.699 212.812C364.315 212.812 364.006 212.707 363.773 212.497C363.552 212.276 363.441 211.921 363.441 211.432C363.034 211.921 362.557 212.276 362.009 212.497C361.474 212.707 360.892 212.812 360.263 212.812C359.856 212.812 359.465 212.765 359.093 212.672C358.732 212.579 358.418 212.433 358.15 212.235C357.882 212.037 357.667 211.781 357.504 211.467C357.352 211.141 357.277 210.751 357.277 210.297C357.277 209.785 357.364 209.365 357.539 209.039C357.713 208.713 357.94 208.452 358.22 208.254C358.511 208.044 358.837 207.887 359.198 207.782C359.57 207.677 359.949 207.59 360.333 207.52C360.74 207.439 361.125 207.38 361.486 207.345C361.858 207.299 362.184 207.241 362.463 207.171C362.743 207.089 362.964 206.979 363.127 206.839C363.29 206.688 363.372 206.472 363.372 206.193C363.372 205.867 363.308 205.605 363.18 205.407C363.063 205.209 362.906 205.058 362.708 204.953C362.522 204.848 362.306 204.778 362.062 204.743C361.829 204.708 361.596 204.691 361.363 204.691C360.735 204.691 360.211 204.813 359.791 205.058C359.372 205.29 359.145 205.739 359.11 206.402H357.626C357.649 205.844 357.766 205.372 357.975 204.988C358.185 204.604 358.464 204.295 358.813 204.062C359.163 203.818 359.559 203.643 360.001 203.538C360.455 203.433 360.938 203.381 361.451 203.381C361.858 203.381 362.26 203.41 362.656 203.468C363.063 203.527 363.43 203.649 363.756 203.835C364.082 204.01 364.344 204.26 364.542 204.586C364.74 204.912 364.839 205.337 364.839 205.861V210.506C364.839 210.856 364.856 211.112 364.891 211.275C364.938 211.438 365.077 211.519 365.31 211.519C365.438 211.519 365.59 211.49 365.764 211.432V212.585ZM363.354 207.957C363.168 208.096 362.923 208.201 362.621 208.271C362.318 208.329 361.998 208.382 361.66 208.428C361.334 208.463 361.002 208.51 360.665 208.568C360.327 208.615 360.024 208.696 359.757 208.812C359.489 208.929 359.268 209.098 359.093 209.319C358.93 209.528 358.848 209.82 358.848 210.192C358.848 210.437 358.895 210.646 358.988 210.821C359.093 210.984 359.221 211.118 359.372 211.222C359.535 211.327 359.722 211.403 359.931 211.45C360.141 211.496 360.362 211.519 360.595 211.519C361.084 211.519 361.503 211.455 361.852 211.327C362.202 211.188 362.487 211.019 362.708 210.821C362.929 210.611 363.092 210.39 363.197 210.157C363.302 209.913 363.354 209.686 363.354 209.476V207.957ZM375.144 212.585C374.888 212.736 374.533 212.812 374.079 212.812C373.695 212.812 373.386 212.707 373.153 212.497C372.932 212.276 372.822 211.921 372.822 211.432C372.414 211.921 371.937 212.276 371.39 212.497C370.854 212.707 370.272 212.812 369.643 212.812C369.236 212.812 368.846 212.765 368.473 212.672C368.112 212.579 367.798 212.433 367.53 212.235C367.262 212.037 367.047 211.781 366.884 211.467C366.732 211.141 366.657 210.751 366.657 210.297C366.657 209.785 366.744 209.365 366.919 209.039C367.093 208.713 367.32 208.452 367.6 208.254C367.891 208.044 368.217 207.887 368.578 207.782C368.95 207.677 369.329 207.59 369.713 207.52C370.121 207.439 370.505 207.38 370.866 207.345C371.238 207.299 371.564 207.241 371.844 207.171C372.123 207.089 372.344 206.979 372.507 206.839C372.67 206.688 372.752 206.472 372.752 206.193C372.752 205.867 372.688 205.605 372.56 205.407C372.443 205.209 372.286 205.058 372.088 204.953C371.902 204.848 371.686 204.778 371.442 204.743C371.209 204.708 370.976 204.691 370.743 204.691C370.115 204.691 369.591 204.813 369.172 205.058C368.753 205.29 368.525 205.739 368.491 206.402H367.006C367.029 205.844 367.146 205.372 367.355 204.988C367.565 204.604 367.844 204.295 368.194 204.062C368.543 203.818 368.939 203.643 369.381 203.538C369.835 203.433 370.318 203.381 370.831 203.381C371.238 203.381 371.64 203.41 372.036 203.468C372.443 203.527 372.81 203.649 373.136 203.835C373.462 204.01 373.724 204.26 373.922 204.586C374.12 204.912 374.219 205.337 374.219 205.861V210.506C374.219 210.856 374.236 211.112 374.271 211.275C374.318 211.438 374.457 211.519 374.69 211.519C374.818 211.519 374.97 211.49 375.144 211.432V212.585ZM372.734 207.957C372.548 208.096 372.304 208.201 372.001 208.271C371.698 208.329 371.378 208.382 371.04 208.428C370.714 208.463 370.383 208.51 370.045 208.568C369.707 208.615 369.405 208.696 369.137 208.812C368.869 208.929 368.648 209.098 368.473 209.319C368.31 209.528 368.229 209.82 368.229 210.192C368.229 210.437 368.275 210.646 368.368 210.821C368.473 210.984 368.601 211.118 368.753 211.222C368.916 211.327 369.102 211.403 369.311 211.45C369.521 211.496 369.742 211.519 369.975 211.519C370.464 211.519 370.883 211.455 371.232 211.327C371.582 211.188 371.867 211.019 372.088 210.821C372.309 210.611 372.472 210.39 372.577 210.157C372.682 209.913 372.734 209.686 372.734 209.476V207.957ZM384.525 212.585C384.268 212.736 383.913 212.812 383.459 212.812C383.075 212.812 382.767 212.707 382.534 212.497C382.312 212.276 382.202 211.921 382.202 211.432C381.794 211.921 381.317 212.276 380.77 212.497C380.234 212.707 379.652 212.812 379.023 212.812C378.616 212.812 378.226 212.765 377.853 212.672C377.492 212.579 377.178 212.433 376.91 212.235C376.642 212.037 376.427 211.781 376.264 211.467C376.113 211.141 376.037 210.751 376.037 210.297C376.037 209.785 376.124 209.365 376.299 209.039C376.474 208.713 376.701 208.452 376.98 208.254C377.271 208.044 377.597 207.887 377.958 207.782C378.331 207.677 378.709 207.59 379.093 207.52C379.501 207.439 379.885 207.38 380.246 207.345C380.618 207.299 380.944 207.241 381.224 207.171C381.503 207.089 381.725 206.979 381.887 206.839C382.05 206.688 382.132 206.472 382.132 206.193C382.132 205.867 382.068 205.605 381.94 205.407C381.823 205.209 381.666 205.058 381.468 204.953C381.282 204.848 381.067 204.778 380.822 204.743C380.589 204.708 380.356 204.691 380.124 204.691C379.495 204.691 378.971 204.813 378.552 205.058C378.133 205.29 377.906 205.739 377.871 206.402H376.386C376.41 205.844 376.526 205.372 376.736 204.988C376.945 204.604 377.225 204.295 377.574 204.062C377.923 203.818 378.319 203.643 378.761 203.538C379.215 203.433 379.699 203.381 380.211 203.381C380.618 203.381 381.02 203.41 381.416 203.468C381.823 203.527 382.19 203.649 382.516 203.835C382.842 204.01 383.104 204.26 383.302 204.586C383.5 204.912 383.599 205.337 383.599 205.861V210.506C383.599 210.856 383.616 211.112 383.651 211.275C383.698 211.438 383.838 211.519 384.071 211.519C384.199 211.519 384.35 211.49 384.525 211.432V212.585ZM382.115 207.957C381.928 208.096 381.684 208.201 381.381 208.271C381.078 208.329 380.758 208.382 380.421 208.428C380.095 208.463 379.763 208.51 379.425 208.568C379.087 208.615 378.785 208.696 378.517 208.812C378.249 208.929 378.028 209.098 377.853 209.319C377.69 209.528 377.609 209.82 377.609 210.192C377.609 210.437 377.655 210.646 377.748 210.821C377.853 210.984 377.981 211.118 378.133 211.222C378.296 211.327 378.482 211.403 378.692 211.45C378.901 211.496 379.122 211.519 379.355 211.519C379.844 211.519 380.263 211.455 380.613 211.327C380.962 211.188 381.247 211.019 381.468 210.821C381.69 210.611 381.853 210.39 381.957 210.157C382.062 209.913 382.115 209.686 382.115 209.476V207.957ZM393.905 212.585C393.649 212.736 393.294 212.812 392.839 212.812C392.455 212.812 392.147 212.707 391.914 212.497C391.693 212.276 391.582 211.921 391.582 211.432C391.175 211.921 390.697 212.276 390.15 212.497C389.614 212.707 389.032 212.812 388.404 212.812C387.996 212.812 387.606 212.765 387.233 212.672C386.873 212.579 386.558 212.433 386.29 212.235C386.023 212.037 385.807 211.781 385.644 211.467C385.493 211.141 385.417 210.751 385.417 210.297C385.417 209.785 385.504 209.365 385.679 209.039C385.854 208.713 386.081 208.452 386.36 208.254C386.651 208.044 386.977 207.887 387.338 207.782C387.711 207.677 388.089 207.59 388.473 207.52C388.881 207.439 389.265 207.38 389.626 207.345C389.999 207.299 390.325 207.241 390.604 207.171C390.883 207.089 391.105 206.979 391.268 206.839C391.431 206.688 391.512 206.472 391.512 206.193C391.512 205.867 391.448 205.605 391.32 205.407C391.204 205.209 391.046 205.058 390.849 204.953C390.662 204.848 390.447 204.778 390.202 204.743C389.97 204.708 389.737 204.691 389.504 204.691C388.875 204.691 388.351 204.813 387.932 205.058C387.513 205.29 387.286 205.739 387.251 206.402H385.766C385.79 205.844 385.906 205.372 386.116 204.988C386.325 204.604 386.605 204.295 386.954 204.062C387.303 203.818 387.699 203.643 388.142 203.538C388.596 203.433 389.079 203.381 389.591 203.381C389.999 203.381 390.4 203.41 390.796 203.468C391.204 203.527 391.57 203.649 391.896 203.835C392.222 204.01 392.484 204.26 392.682 204.586C392.88 204.912 392.979 205.337 392.979 205.861V210.506C392.979 210.856 392.997 211.112 393.032 211.275C393.078 211.438 393.218 211.519 393.451 211.519C393.579 211.519 393.73 211.49 393.905 211.432V212.585ZM391.495 207.957C391.308 208.096 391.064 208.201 390.761 208.271C390.459 208.329 390.138 208.382 389.801 208.428C389.475 208.463 389.143 208.51 388.805 208.568C388.468 208.615 388.165 208.696 387.897 208.812C387.629 208.929 387.408 209.098 387.233 209.319C387.07 209.528 386.989 209.82 386.989 210.192C386.989 210.437 387.036 210.646 387.129 210.821C387.233 210.984 387.362 211.118 387.513 211.222C387.676 211.327 387.862 211.403 388.072 211.45C388.281 211.496 388.503 211.519 388.735 211.519C389.224 211.519 389.644 211.455 389.993 211.327C390.342 211.188 390.627 211.019 390.849 210.821C391.07 210.611 391.233 210.39 391.338 210.157C391.442 209.913 391.495 209.686 391.495 209.476V207.957ZM403.285 212.585C403.029 212.736 402.674 212.812 402.22 212.812C401.835 212.812 401.527 212.707 401.294 212.497C401.073 212.276 400.962 211.921 400.962 211.432C400.555 211.921 400.077 212.276 399.53 212.497C398.995 212.707 398.412 212.812 397.784 212.812C397.376 212.812 396.986 212.765 396.614 212.672C396.253 212.579 395.938 212.433 395.671 212.235C395.403 212.037 395.187 211.781 395.024 211.467C394.873 211.141 394.797 210.751 394.797 210.297C394.797 209.785 394.885 209.365 395.059 209.039C395.234 208.713 395.461 208.452 395.74 208.254C396.031 208.044 396.357 207.887 396.718 207.782C397.091 207.677 397.469 207.59 397.854 207.52C398.261 207.439 398.645 207.38 399.006 207.345C399.379 207.299 399.705 207.241 399.984 207.171C400.264 207.089 400.485 206.979 400.648 206.839C400.811 206.688 400.892 206.472 400.892 206.193C400.892 205.867 400.828 205.605 400.7 205.407C400.584 205.209 400.427 205.058 400.229 204.953C400.042 204.848 399.827 204.778 399.583 204.743C399.35 204.708 399.117 204.691 398.884 204.691C398.255 204.691 397.731 204.813 397.312 205.058C396.893 205.29 396.666 205.739 396.631 206.402H395.147C395.17 205.844 395.286 205.372 395.496 204.988C395.705 204.604 395.985 204.295 396.334 204.062C396.683 203.818 397.079 203.643 397.522 203.538C397.976 203.433 398.459 203.381 398.971 203.381C399.379 203.381 399.78 203.41 400.176 203.468C400.584 203.527 400.951 203.649 401.277 203.835C401.603 204.01 401.865 204.26 402.062 204.586C402.26 204.912 402.359 205.337 402.359 205.861V210.506C402.359 210.856 402.377 211.112 402.412 211.275C402.458 211.438 402.598 211.519 402.831 211.519C402.959 211.519 403.11 211.49 403.285 211.432V212.585ZM400.875 207.957C400.689 208.096 400.444 208.201 400.141 208.271C399.839 208.329 399.519 208.382 399.181 208.428C398.855 208.463 398.523 208.51 398.185 208.568C397.848 208.615 397.545 208.696 397.277 208.812C397.009 208.929 396.788 209.098 396.614 209.319C396.451 209.528 396.369 209.82 396.369 210.192C396.369 210.437 396.416 210.646 396.509 210.821C396.614 210.984 396.742 211.118 396.893 211.222C397.056 211.327 397.242 211.403 397.452 211.45C397.661 211.496 397.883 211.519 398.116 211.519C398.605 211.519 399.024 211.455 399.373 211.327C399.722 211.188 400.008 211.019 400.229 210.821C400.45 210.611 400.613 210.39 400.718 210.157C400.823 209.913 400.875 209.686 400.875 209.476V207.957Z" fill="black" fill-opacity="0.75"/>
</g>
</g>
<g clip-path="url(#clip5_2393_3991)">
<circle cx="458.436" cy="194.867" r="19.9591" fill="white" fill-opacity="0.75"/>
<circle cx="458.436" cy="194.867" r="21.2065" stroke="white" stroke-opacity="0.75" stroke-width="2.49488"/>
</g>
</g>
<defs>
<filter id="filter0_ddd_2393_3991" x="141.403" y="91.7424" width="211.878" height="64.9183" filterUnits="userSpaceOnUse" color-interpolation-filters="sRGB">
<feFlood flood-opacity="0" result="BackgroundImageFix"/>
<feColorMatrix in="SourceAlpha" type="matrix" values="0 0 0 0 0 0 0 0 0 0 0 0 0 0 0 0 0 0 127 0" result="hardAlpha"/>
<feOffset dy="-1.24744"/>
<feGaussianBlur stdDeviation="0.623721"/>
<feColorMatrix type="matrix" values="0 0 0 0 0 0 0 0 0 0 0 0 0 0 0 0 0 0 0.08 0"/>
<feBlend mode="normal" in2="BackgroundImageFix" result="effect1_dropShadow_2393_3991"/>
<feColorMatrix in="SourceAlpha" type="matrix" values="0 0 0 0 0 0 0 0 0 0 0 0 0 0 0 0 0 0 127 0" result="hardAlpha"/>
<feOffset dy="2.49488"/>
<feGaussianBlur stdDeviation="2.49488"/>
<feColorMatrix type="matrix" values="0 0 0 0 0 0 0 0 0 0 0 0 0 0 0 0 0 0 0.16 0"/>
<feBlend mode="normal" in2="effect1_dropShadow_2393_3991" result="effect2_dropShadow_2393_3991"/>
<feColorMatrix in="SourceAlpha" type="matrix" values="0 0 0 0 0 0 0 0 0 0 0 0 0 0 0 0 0 0 127 0" result="hardAlpha"/>
<feOffset/>
<feGaussianBlur stdDeviation="0.623721"/>
<feColorMatrix type="matrix" values="0 0 0 0 0 0 0 0 0 0 0 0 0 0 0 0 0 0 0.24 0"/>
<feBlend mode="normal" in2="effect2_dropShadow_2393_3991" result="effect3_dropShadow_2393_3991"/>
<feBlend mode="normal" in="SourceGraphic" in2="effect3_dropShadow_2393_3991" result="shape"/>
</filter>
<filter id="filter1_ddd_2393_3991" x="290.61" y="176.156" width="142.878" height="64.9183" filterUnits="userSpaceOnUse" color-interpolation-filters="sRGB">
<feFlood flood-opacity="0" result="BackgroundImageFix"/>
<feColorMatrix in="SourceAlpha" type="matrix" values="0 0 0 0 0 0 0 0 0 0 0 0 0 0 0 0 0 0 127 0" result="hardAlpha"/>
<feOffset dy="-1.24744"/>
<feGaussianBlur stdDeviation="0.623721"/>
<feColorMatrix type="matrix" values="0 0 0 0 0 0 0 0 0 0 0 0 0 0 0 0 0 0 0.08 0"/>
<feBlend mode="normal" in2="BackgroundImageFix" result="effect1_dropShadow_2393_3991"/>
<feColorMatrix in="SourceAlpha" type="matrix" values="0 0 0 0 0 0 0 0 0 0 0 0 0 0 0 0 0 0 127 0" result="hardAlpha"/>
<feOffset dy="2.49488"/>
<feGaussianBlur stdDeviation="2.49488"/>
<feColorMatrix type="matrix" values="0 0 0 0 0 0 0 0 0 0 0 0 0 0 0 0 0 0 0.16 0"/>
<feBlend mode="normal" in2="effect1_dropShadow_2393_3991" result="effect2_dropShadow_2393_3991"/>
<feColorMatrix in="SourceAlpha" type="matrix" values="0 0 0 0 0 0 0 0 0 0 0 0 0 0 0 0 0 0 127 0" result="hardAlpha"/>
<feOffset/>
<feGaussianBlur stdDeviation="0.623721"/>
<feColorMatrix type="matrix" values="0 0 0 0 0 0 0 0 0 0 0 0 0 0 0 0 0 0 0.24 0"/>
<feBlend mode="normal" in2="effect2_dropShadow_2393_3991" result="effect3_dropShadow_2393_3991"/>
<feBlend mode="normal" in="SourceGraphic" in2="effect3_dropShadow_2393_3991" result="shape"/>
</filter>
<clipPath id="clip0_2393_3991">
<rect width="281.239" height="67.413" fill="white" transform="translate(94 88)"/>
</clipPath>
<clipPath id="clip1_2393_3991">
<rect width="44.9079" height="44.9079" fill="white" transform="translate(94 88)"/>
</clipPath>
<clipPath id="clip2_2393_3991">
<rect width="201.898" height="67.413" fill="white" transform="translate(146.393 88)"/>
</clipPath>
<clipPath id="clip3_2393_3991">
<rect width="187.29" height="67.413" fill="white" transform="translate(295.6 172.413)"/>
</clipPath>
<clipPath id="clip4_2393_3991">
<rect width="132.898" height="67.413" fill="white" transform="translate(295.6 172.413)"/>
</clipPath>
<clipPath id="clip5_2393_3991">
<rect width="44.9079" height="44.9079" fill="white" transform="translate(435.982 172.413)"/>
</clipPath>
</defs>
</svg>
