<svg width="152" height="36" viewBox="0 0 152 36" fill="none" xmlns="http://www.w3.org/2000/svg">
<g clip-path="url(#clip0_2472_5197)">
<path d="M94.444 35.9543C96.4877 35.1466 98.5542 34.1813 100.469 33.1729C101.891 32.4236 103.182 31.6515 104.615 31.146C103.753 29.3095 102.392 27.7906 100.504 26.6069C99.8199 26.1777 99.8047 26.198 99.1353 26.64C97.3366 27.8236 95.2953 28.3926 93.0419 28.2757C91.0285 28.1716 89.2247 27.5417 87.6812 26.4063C87.4437 26.231 87.2922 26.2361 87.0446 26.3809C84.6699 27.7677 83.048 29.6321 82.1866 31.9969C82.0704 32.317 82.1613 32.4948 82.4594 32.6903C85.7436 34.8646 89.442 35.9746 93.5876 36C93.8731 35.9822 94.1585 35.967 94.444 35.9543Z" fill="white"/>
<path d="M93.219 29.6854C92.259 29.6854 91.3066 29.5609 90.3769 29.3094C85.5947 28.0089 81.0601 22.9771 81.7498 16.8023C82.2929 11.9482 85.9964 7.85624 90.7609 6.85038C95.0253 5.95121 98.5115 7.90958 99.9489 8.9129L102.948 5.621C97.9785 1.60266 91.0085 0.866045 85.3522 3.83281C79.2841 7.01548 75.8762 13.7568 76.8741 20.6072L75.3457 20.8333C74.2544 13.3275 77.9882 5.94359 84.6398 2.45357C91.0919 -0.929764 99.1052 0.0786318 104.577 4.96821L105.163 5.49146L100.128 11.016L99.5624 10.5563C98.9132 10.028 95.4623 7.44475 91.0767 8.36933C86.9589 9.23802 83.7531 12.7763 83.2857 16.9724C82.6895 22.3167 86.628 26.6754 90.7811 27.8057C93.2922 28.489 96.0383 28.08 98.5039 26.6525C101.002 25.2073 102.877 22.9212 103.857 20.15H97.6349V18.5955H105.913L105.651 19.5734C104.683 23.1879 102.42 26.1801 99.2744 27.9988C97.3494 29.1113 95.2703 29.6828 93.219 29.6828V29.6854Z" fill="white"/>
<path d="M92.2036 35.9745V30.0359H93.7497V34.3946C99.0574 34.2396 103.491 32.0298 106.277 28.1385C110.057 22.8603 109.402 17.0486 109.114 15.3925L110.638 15.1233C110.954 16.9318 111.666 23.2768 107.535 29.0453C104.35 33.4954 99.2468 35.9516 93.1712 35.9567C93.0979 35.9567 93.0398 35.9567 92.9969 35.9567L92.2087 35.9745H92.2036Z" fill="white"/>
<path d="M93.555 24.26C96.8045 24.26 99.4387 21.6114 99.4387 18.3442C99.4387 15.077 96.8045 12.4285 93.555 12.4285C90.3056 12.4285 87.6714 15.077 87.6714 18.3442C87.6714 21.6114 90.3056 24.26 93.555 24.26Z" fill="white"/>
<path d="M76.2602 27.877C74.1306 27.877 72.395 26.1345 72.395 23.9908C72.395 21.847 74.128 20.1045 76.2602 20.1045C78.3924 20.1045 80.1254 21.847 80.1254 23.9908C80.1254 26.1345 78.3924 27.877 76.2602 27.877ZM76.2602 21.6615C74.9819 21.6615 73.9411 22.708 73.9411 23.9933C73.9411 25.2786 74.9819 26.3251 76.2602 26.3251C77.5385 26.3251 78.5793 25.2786 78.5793 23.9933C78.5793 22.708 77.5385 21.6615 76.2602 21.6615Z" fill="white"/>
<path d="M23.8455 11.0493C21.8851 11.0493 20.291 9.44652 20.291 7.47545C20.291 5.50438 21.8851 3.90161 23.8455 3.90161C25.8058 3.90161 27.3999 5.50438 27.3999 7.47545C27.3999 9.44652 25.8058 11.0493 23.8455 11.0493ZM23.8455 5.45612C22.7364 5.45612 21.8371 6.36291 21.8371 7.47545C21.8371 8.58799 22.739 9.49478 23.8455 9.49478C24.952 9.49478 25.8538 8.58799 25.8538 7.47545C25.8538 6.36291 24.952 5.45612 23.8455 5.45612Z" fill="white"/>
<path d="M11.469 28.8955C9.50862 28.8955 7.91455 27.2927 7.91455 25.3216C7.91455 23.3506 9.50862 21.7478 11.469 21.7478C13.4294 21.7478 15.0234 23.3506 15.0234 25.3216C15.0234 27.2927 13.4294 28.8955 11.469 28.8955ZM11.469 23.3023C10.36 23.3023 9.46062 24.2091 9.46062 25.3216C9.46062 26.4342 10.3625 27.341 11.469 27.341C12.5755 27.341 13.4774 26.4342 13.4774 25.3216C13.4774 24.2091 12.5755 23.3023 11.469 23.3023Z" fill="white"/>
<path d="M18.5731 34.1077H10.4562V31.0164H12.0023V32.5557H17.0295V8.25259H0V0H29.6558V8.25259H26.3186V6.69809H28.1097V1.5545H1.54607V6.69809H18.5731V34.1077Z" fill="white"/>
<path d="M12.2424 11.7249H10.6963V22.0755H12.2424V11.7249Z" fill="white"/>
<path d="M20.9503 24.9942C21.4252 24.0645 22.0719 23.3508 22.8905 22.8504C23.7064 22.35 24.6209 22.1011 25.6289 22.1011C26.5106 22.1011 27.2811 22.2789 27.943 22.637C28.6049 22.9952 29.1328 23.4448 29.532 23.9883V22.2941H32.5382V34.1688H29.532V32.4314C29.148 32.9877 28.62 33.45 27.943 33.8132C27.2685 34.1764 26.4904 34.3593 25.6087 34.3593C24.6134 34.3593 23.7064 34.1028 22.8905 33.5871C22.0719 33.0741 21.4277 32.3476 20.9503 31.4129C20.4728 30.4781 20.2354 29.4012 20.2354 28.187C20.2354 26.9729 20.4728 25.9213 20.9503 24.9942ZM29.105 26.3556C28.8196 25.8349 28.4356 25.4336 27.9531 25.1542C27.4706 24.8748 26.9501 24.7351 26.3969 24.7351C25.8436 24.7351 25.3308 24.8723 24.8609 25.1415C24.3911 25.4133 24.0121 25.8095 23.7216 26.3302C23.4311 26.851 23.2845 27.4707 23.2845 28.1845C23.2845 28.8982 23.4311 29.5231 23.7216 30.059C24.0121 30.595 24.3961 31.0065 24.8736 31.2909C25.3485 31.578 25.8588 31.7202 26.3969 31.7202C26.935 31.7202 27.4706 31.5805 27.9531 31.3011C28.4356 31.0217 28.8196 30.6229 29.105 30.0997C29.388 29.579 29.532 28.9541 29.532 28.2251C29.532 27.4961 29.3905 26.8713 29.105 26.3506V26.3556Z" fill="white"/>
<path d="M37.9518 18.3062V34.1687H34.9683V18.3062H37.9518Z" fill="white"/>
<path d="M51.2955 29.1318H42.6607C42.7315 29.9903 43.0296 30.6609 43.555 31.1461C44.0805 31.6312 44.7272 31.8751 45.4952 31.8751C46.6042 31.8751 47.3924 31.3975 47.8623 30.4399H51.0808C50.7397 31.5829 50.0854 32.5228 49.1204 33.2594C48.1528 33.996 46.968 34.3643 45.5609 34.3643C44.4241 34.3643 43.4035 34.1103 42.5016 33.6023C41.5997 33.0943 40.8949 32.378 40.3922 31.4483C39.8894 30.5187 39.6343 29.4468 39.6343 28.2326C39.6343 27.0185 39.8819 25.9263 40.3795 24.9966C40.8772 24.067 41.5744 23.3532 42.4687 22.8528C43.363 22.3524 44.3938 22.1035 45.5609 22.1035C46.728 22.1035 47.688 22.3474 48.5772 22.8325C49.4665 23.3177 50.1561 24.0085 50.6462 24.9001C51.1363 25.7942 51.3814 26.8178 51.3814 27.9761C51.3814 28.4054 51.3536 28.7914 51.2955 29.1343V29.1318ZM48.2918 27.1176C48.2766 26.3454 48.0012 25.7282 47.4606 25.2633C46.92 24.7985 46.2607 24.5674 45.4775 24.5674C44.7373 24.5674 44.1159 24.7934 43.6131 25.243C43.1079 25.6926 42.7997 26.3174 42.686 27.1176H48.2918Z" fill="white"/>
<path d="M63.0228 23.4624C63.8893 24.3565 64.3238 25.6036 64.3238 27.2039V34.1712H61.3403V27.6128C61.3403 26.6705 61.1054 25.944 60.6355 25.4385C60.1656 24.9305 59.5265 24.6765 58.718 24.6765C57.9096 24.6765 57.2427 24.9305 56.7678 25.4385C56.2903 25.9465 56.0528 26.6705 56.0528 27.6128V34.1712H53.0693V22.2965H56.0528V23.7748C56.4495 23.2592 56.9598 22.8579 57.5762 22.5632C58.1951 22.2711 58.8722 22.1238 59.6123 22.1238C61.0195 22.1238 62.1563 22.5708 63.0228 23.4624Z" fill="white"/>
<path d="M70.1414 24.7579V30.5035C70.1414 30.9048 70.2374 31.1919 70.4294 31.3722C70.6214 31.55 70.9448 31.6389 71.3995 31.6389H72.7864V34.1688H70.9094C68.3932 34.1688 67.1352 32.9394 67.1352 30.4832V24.7605H65.728V22.2966H67.1352V19.3604H70.1414V22.2966H72.7839V24.7605H70.1414V24.7579Z" fill="white"/>
<path d="M107.179 15.6644C106.613 15.3495 106.166 14.8999 105.842 14.3208C105.519 13.7416 105.357 13.0736 105.357 12.3167C105.357 11.5597 105.524 10.8917 105.855 10.3126C106.189 9.73344 106.641 9.28639 107.217 8.96888C107.793 8.65392 108.434 8.4939 109.144 8.4939C109.854 8.4939 110.496 8.65138 111.072 8.96888C111.648 9.28639 112.103 9.73344 112.433 10.3126C112.767 10.8917 112.931 11.5597 112.931 12.3167C112.931 13.0736 112.759 13.7416 112.418 14.3208C112.077 14.8999 111.615 15.3469 111.036 15.6644C110.455 15.9819 109.806 16.1394 109.089 16.1394C108.371 16.1394 107.742 15.9819 107.174 15.6644H107.179ZM110.044 14.2623C110.342 14.0972 110.577 13.8508 110.756 13.5206C110.933 13.1904 111.021 12.7891 111.021 12.3167C111.021 11.6131 110.837 11.072 110.471 10.6936C110.102 10.3151 109.652 10.1246 109.122 10.1246C108.591 10.1246 108.144 10.3151 107.785 10.6936C107.426 11.072 107.247 11.6131 107.247 12.3167C107.247 13.0203 107.421 13.5613 107.773 13.9397C108.124 14.3182 108.563 14.5087 109.096 14.5087C109.432 14.5087 109.751 14.4274 110.046 14.2623H110.044Z" fill="white"/>
<path d="M120.512 9.34226C121.053 9.89853 121.323 10.6758 121.323 11.674V16.0175H119.461V11.928C119.461 11.3413 119.315 10.8891 119.022 10.5716C118.729 10.2567 118.33 10.0967 117.824 10.0967C117.319 10.0967 116.905 10.2541 116.609 10.5716C116.311 10.8891 116.165 11.3413 116.165 11.928V16.0175H114.303V8.61327H116.165V9.53531C116.412 9.21526 116.73 8.9638 117.114 8.78092C117.501 8.59803 117.923 8.50659 118.385 8.50659C119.262 8.50659 119.972 8.786 120.512 9.34226Z" fill="white"/>
<path d="M129.299 9.34226C129.84 9.89853 130.11 10.6758 130.11 11.674V16.0175H128.248V11.928C128.248 11.3413 128.101 10.8891 127.808 10.5716C127.515 10.2567 127.116 10.0967 126.611 10.0967C126.106 10.0967 125.691 10.2541 125.396 10.5716C125.098 10.8891 124.951 11.3413 124.951 11.928V16.0175H123.089V8.61327H124.951V9.53531C125.199 9.21526 125.517 8.9638 125.901 8.78092C126.288 8.59803 126.709 8.50659 127.172 8.50659C128.048 8.50659 128.758 8.786 129.299 9.34226Z" fill="white"/>
<path d="M138.671 12.878H133.288C133.331 13.414 133.518 13.8305 133.846 14.1353C134.175 14.4376 134.576 14.59 135.056 14.59C135.749 14.59 136.239 14.2928 136.532 13.6934H138.54C138.328 14.4071 137.919 14.9913 137.317 15.4511C136.714 15.9108 135.976 16.1394 135.097 16.1394C134.387 16.1394 133.753 15.9819 133.189 15.6644C132.626 15.3495 132.189 14.8999 131.873 14.3208C131.558 13.7416 131.401 13.0736 131.401 12.3167C131.401 11.5597 131.555 10.879 131.866 10.2973C132.176 9.7182 132.611 9.27369 133.169 8.96126C133.728 8.64884 134.369 8.4939 135.097 8.4939C135.824 8.4939 136.423 8.6463 136.976 8.94856C137.53 9.25083 137.959 9.68264 138.267 10.2389C138.573 10.7952 138.727 11.4353 138.727 12.1566C138.727 12.4233 138.709 12.6646 138.674 12.878H138.671ZM136.797 11.6207C136.787 11.1406 136.615 10.7545 136.279 10.465C135.943 10.1754 135.531 10.0306 135.044 10.0306C134.584 10.0306 134.195 10.1703 133.882 10.4523C133.566 10.7342 133.374 11.1228 133.303 11.6207H136.799H136.797Z" fill="white"/>
<path d="M140.066 10.3049C140.377 9.7309 140.806 9.28385 141.354 8.96888C141.902 8.65392 142.534 8.4939 143.241 8.4939C144.153 8.4939 144.909 8.7225 145.507 9.18225C146.106 9.642 146.508 10.2846 146.71 11.1127H144.702C144.595 10.7926 144.416 10.5412 144.163 10.3583C143.911 10.1754 143.598 10.084 143.226 10.084C142.696 10.084 142.274 10.277 141.963 10.6656C141.652 11.0543 141.498 11.6029 141.498 12.3167C141.498 13.0304 141.652 13.5664 141.963 13.955C142.274 14.3436 142.693 14.5367 143.226 14.5367C143.979 14.5367 144.472 14.1988 144.702 13.5206H146.71C146.505 14.3233 146.104 14.9608 145.5 15.4307C144.896 15.9032 144.143 16.1394 143.241 16.1394C142.532 16.1394 141.902 15.9819 141.354 15.6644C140.806 15.3495 140.374 14.9024 140.066 14.3284C139.755 13.7543 139.601 13.0838 139.601 12.3167C139.601 11.5496 139.755 10.879 140.066 10.3049Z" fill="white"/>
<path d="M150.249 10.1501V13.7315C150.249 13.9805 150.31 14.1608 150.429 14.2726C150.547 14.3843 150.749 14.4402 151.032 14.4402H151.896V16.0176H150.727C149.158 16.0176 148.375 15.2505 148.375 13.7188V10.1501H147.498V8.61335H148.375V6.78198H150.249V8.61335H151.896V10.1501H150.249Z" fill="white"/>
<path d="M117.499 22.0629C117.678 22.289 117.767 22.543 117.767 22.8275C117.767 23.0713 117.704 23.2898 117.577 23.4853C117.451 23.6809 117.269 23.8333 117.034 23.9476C116.797 24.0594 116.521 24.1153 116.205 24.1153H114.303V19.3298H116.117C116.44 19.3298 116.721 19.3857 116.953 19.4949C117.186 19.6042 117.363 19.754 117.481 19.9394C117.6 20.1249 117.661 20.3331 117.661 20.5618C117.661 20.8386 117.587 21.0672 117.441 21.2501C117.294 21.433 117.097 21.5702 116.852 21.6565C117.107 21.7022 117.325 21.8369 117.501 22.0629H117.499ZM115.081 21.339H116.046C116.301 21.339 116.501 21.2806 116.645 21.1637C116.789 21.0469 116.86 20.8793 116.86 20.6583C116.86 20.4373 116.789 20.2747 116.645 20.1528C116.501 20.0309 116.301 19.9699 116.046 19.9699H115.081V21.339ZM116.761 23.2821C116.913 23.1526 116.986 22.9748 116.986 22.7462C116.986 22.5176 116.905 22.3271 116.746 22.1874C116.587 22.0502 116.375 21.9816 116.109 21.9816H115.081V23.4752H116.135C116.4 23.4752 116.607 23.4117 116.759 23.2821H116.761Z" fill="white"/>
<path d="M122.142 19.3298L120.569 22.3804V24.1153H119.788V22.3804L118.207 19.3298H119.076L120.177 21.6768L121.278 19.3298H122.142Z" fill="white"/>
<path d="M127.612 19.3298V19.9699H126.346V24.1153H125.565V19.9699H124.292V19.3298H127.614H127.612Z" fill="white"/>
<path d="M129.181 19.9621V21.3668H130.823V22.0068H129.181V23.4724H131.03V24.1125H128.4V19.322H131.03V19.9621H129.181Z" fill="white"/>
<path d="M132.053 20.4525C132.27 20.0816 132.563 19.7895 132.937 19.5812C133.308 19.3729 133.718 19.2688 134.16 19.2688C134.668 19.2688 135.117 19.3933 135.511 19.6447C135.905 19.8936 136.193 20.2493 136.37 20.709H135.433C135.309 20.4575 135.137 20.267 134.92 20.1451C134.703 20.0232 134.448 19.9597 134.16 19.9597C133.844 19.9597 133.564 20.0308 133.319 20.1731C133.071 20.3153 132.879 20.5185 132.74 20.7852C132.601 21.0519 132.53 21.3618 132.53 21.7149C132.53 22.0679 132.599 22.3778 132.74 22.6445C132.879 22.9112 133.071 23.117 133.319 23.2592C133.566 23.404 133.846 23.4751 134.16 23.4751C134.448 23.4751 134.7 23.4141 134.92 23.2897C135.14 23.1652 135.309 22.9773 135.433 22.7258H136.37C136.191 23.1855 135.905 23.5386 135.511 23.785C135.117 24.0339 134.665 24.1558 134.16 24.1558C133.713 24.1558 133.303 24.0517 132.935 23.8434C132.566 23.6351 132.27 23.3456 132.055 22.9722C131.838 22.6013 131.729 22.1797 131.729 21.7123C131.729 21.245 131.838 20.8233 132.055 20.4525H132.053Z" fill="white"/>
<path d="M141.079 19.3298V24.1153H140.299V22.0223H138.06V24.1153H137.28V19.3298H138.06V21.3822H140.299V19.3298H141.079Z" fill="white"/>
<path d="M142.171 20.4525C142.388 20.0816 142.681 19.7895 143.055 19.5812C143.429 19.3729 143.835 19.2688 144.277 19.2688C144.785 19.2688 145.235 19.3933 145.629 19.6447C146.023 19.8936 146.311 20.2493 146.488 20.709H145.551C145.427 20.4575 145.255 20.267 145.038 20.1451C144.818 20.0207 144.565 19.9597 144.277 19.9597C143.962 19.9597 143.681 20.0308 143.436 20.1731C143.189 20.3153 142.997 20.5185 142.858 20.7852C142.719 21.0519 142.648 21.3618 142.648 21.7149C142.648 22.0679 142.716 22.3778 142.858 22.6445C142.997 22.9112 143.189 23.117 143.436 23.2592C143.684 23.404 143.964 23.4751 144.277 23.4751C144.565 23.4751 144.818 23.4141 145.038 23.2897C145.258 23.1652 145.427 22.9773 145.551 22.7258H146.488C146.309 23.1855 146.023 23.5386 145.629 23.785C145.235 24.0339 144.783 24.1558 144.277 24.1558C143.83 24.1558 143.421 24.0517 143.052 23.8434C142.683 23.6351 142.388 23.3456 142.173 22.9722C141.956 22.6013 141.847 22.1797 141.847 21.7123C141.847 21.245 141.956 20.8233 142.173 20.4525H142.171Z" fill="white"/>
<path d="M148.347 23.8485C147.976 23.6402 147.68 23.3481 147.463 22.9747C147.246 22.6013 147.137 22.1797 147.137 21.7123C147.137 21.245 147.246 20.8233 147.463 20.4525C147.68 20.0816 147.973 19.7895 148.347 19.5812C148.719 19.3729 149.128 19.2688 149.57 19.2688C150.012 19.2688 150.426 19.3729 150.798 19.5812C151.169 19.7895 151.462 20.0791 151.677 20.4525C151.892 20.8233 151.998 21.245 151.998 21.7123C151.998 22.1797 151.889 22.6013 151.677 22.9747C151.462 23.3481 151.169 23.6402 150.798 23.8485C150.426 24.0568 150.017 24.1609 149.57 24.1609C149.123 24.1609 148.719 24.0568 148.347 23.8485ZM150.411 23.2643C150.659 23.1195 150.851 22.9138 150.99 22.6445C151.129 22.3753 151.199 22.0654 151.199 21.7123C151.199 21.3593 151.129 21.0494 150.99 20.7827C150.851 20.516 150.659 20.3128 150.411 20.1705C150.164 20.0283 149.883 19.9571 149.57 19.9571C149.257 19.9571 148.974 20.0283 148.729 20.1705C148.481 20.3128 148.289 20.516 148.15 20.7827C148.011 21.0494 147.941 21.3593 147.941 21.7123C147.941 22.0654 148.009 22.3753 148.15 22.6445C148.289 22.9138 148.481 23.1195 148.729 23.2643C148.976 23.4091 149.257 23.4802 149.57 23.4802C149.883 23.4802 150.166 23.4091 150.411 23.2643Z" fill="white"/>
</g>
<defs>
<clipPath id="clip0_2472_5197">
<rect width="152" height="36" fill="white"/>
</clipPath>
</defs>
</svg>
