<svg width="152" height="36" viewBox="0 0 152 36" fill="none" xmlns="http://www.w3.org/2000/svg">
<g clip-path="url(#clip0_2229_3809)">
<path d="M94.444 35.9522C96.4861 35.1426 98.5544 34.1795 100.47 33.1741C101.891 32.4279 103.186 31.65 104.617 31.1473C103.754 29.3111 102.396 27.7923 100.507 26.607C99.8228 26.1783 99.807 26.1995 99.1386 26.6387C97.3387 27.8241 95.2966 28.3903 93.0441 28.2739C91.0284 28.168 89.2284 27.5383 87.6811 26.4059C87.4443 26.2312 87.2916 26.2365 87.0443 26.3794C84.6707 27.7659 83.0497 29.6286 82.1866 31.994C82.0708 32.3115 82.1602 32.4914 82.4602 32.6872C85.7443 34.8621 89.4442 35.9734 93.5914 35.9946C93.8756 35.9787 94.1598 35.9628 94.4493 35.9469L94.444 35.9522Z" fill="#006046"/>
<path d="M93.2177 29.686C92.2599 29.686 91.3073 29.559 90.3757 29.3103C85.5917 28.0085 81.0603 22.976 81.7497 16.8058C82.2918 11.9532 85.9969 7.85741 90.7599 6.85726C95.0229 5.95766 98.5123 7.91562 99.9491 8.92106L102.949 5.62957C97.9807 1.61311 91.0125 0.872255 85.3548 3.84095C79.2866 7.02131 75.8762 13.763 76.8762 20.6159L75.3447 20.8434C74.25 13.3397 77.9867 5.95237 84.6391 2.46508C91.0915 -0.916367 99.1017 0.0890717 104.575 4.97868L105.159 5.50257L100.128 11.0272L99.5649 10.5668C98.9175 10.0376 95.465 7.45523 91.081 8.3813C86.9601 9.24915 83.7602 12.7894 83.2918 16.9857C82.697 22.3304 86.6338 26.6909 90.7862 27.818C93.2967 28.5007 96.044 28.0932 98.5123 26.6644C101.012 25.2197 102.886 22.9337 103.865 20.1608H97.6439V18.605H105.923L105.659 19.584C104.691 23.1983 102.428 26.1881 99.2807 28.0085C97.3544 29.1198 95.2756 29.6913 93.223 29.6913L93.2177 29.686Z" fill="#006046"/>
<path d="M92.2021 35.9727V30.0353H93.7495V34.3957C99.0598 34.2423 103.491 32.0303 106.275 28.1408C110.054 22.8649 109.402 17.0493 109.112 15.3929L110.633 15.123C110.949 16.9328 111.659 23.2777 107.528 29.0457C104.339 33.4961 99.2387 35.9515 93.1653 35.9568C93.0916 35.9568 93.0337 35.9568 92.9916 35.9568L92.2021 35.9727Z" fill="#006046"/>
<path d="M93.5547 24.2621C96.8043 24.2621 99.4387 21.6133 99.4387 18.3459C99.4387 15.0785 96.8043 12.4297 93.5547 12.4297C90.305 12.4297 87.6707 15.0785 87.6707 18.3459C87.6707 21.6133 90.305 24.2621 93.5547 24.2621Z" fill="#006046"/>
<path d="M76.2605 27.8777C74.129 27.8777 72.3975 26.1367 72.3975 23.9935C72.3975 21.8504 74.129 20.1094 76.2605 20.1094C78.392 20.1094 80.1235 21.8504 80.1235 23.9935C80.1235 26.1367 78.392 27.8777 76.2605 27.8777ZM76.2605 21.6599C74.9816 21.6599 73.9395 22.7076 73.9395 23.9935C73.9395 25.2794 74.9816 26.3272 76.2605 26.3272C77.5394 26.3272 78.5815 25.2794 78.5815 23.9935C78.5815 22.7076 77.5394 21.6599 76.2605 21.6599Z" fill="#006046"/>
<path d="M23.8465 11.0502C21.8886 11.0502 20.2939 9.44675 20.2939 7.4782C20.2939 5.50966 21.8886 3.90625 23.8465 3.90625C25.8043 3.90625 27.399 5.50966 27.399 7.4782C27.399 9.44675 25.8043 11.0502 23.8465 11.0502ZM23.8465 5.45674C22.736 5.45674 21.836 6.36164 21.836 7.4782C21.836 8.59477 22.736 9.49967 23.8465 9.49967C24.9569 9.49967 25.8569 8.59477 25.8569 7.4782C25.8569 6.36164 24.9569 5.45674 23.8465 5.45674Z" fill="#006046"/>
<path d="M11.468 28.8978C9.51021 28.8978 7.91553 27.2944 7.91553 25.3259C7.91553 23.3573 9.51021 21.7539 11.468 21.7539C13.4259 21.7539 15.0205 23.3573 15.0205 25.3259C15.0205 27.2944 13.4259 28.8978 11.468 28.8978ZM11.468 23.2991C10.3575 23.2991 9.45758 24.204 9.45758 25.3206C9.45758 26.4371 10.3575 27.342 11.468 27.342C12.5785 27.342 13.4785 26.4371 13.4785 25.3206C13.4785 24.204 12.5785 23.2991 11.468 23.2991Z" fill="#006046"/>
<path d="M18.573 34.1108H10.4575V31.0151H12.0048V32.555H17.0257V8.25518H0V0H29.6516V8.25518H26.3201V6.6994H28.1096V1.55578H1.54731V6.6994H18.573V34.1108Z" fill="#006046"/>
<path d="M12.2417 11.7266H10.6943V22.0773H12.2417V11.7266Z" fill="#006046"/>
<path d="M20.9467 24.9923C21.4204 24.0609 22.0677 23.3518 22.8888 22.8491C23.7045 22.3517 24.6203 22.0977 25.6255 22.0977C26.5044 22.0977 27.2781 22.2776 27.9412 22.6321C28.6044 22.992 29.1306 23.4418 29.5306 23.9815V22.2882H32.5358V34.1629H29.5306V32.4272C29.1464 32.9829 28.6149 33.4432 27.9412 33.8084C27.2676 34.1735 26.4886 34.3534 25.6045 34.3534C24.6098 34.3534 23.7045 34.0941 22.8888 33.5808C22.073 33.0675 21.4257 32.3425 20.9467 31.4059C20.4678 30.4693 20.231 29.395 20.231 28.1779C20.231 26.9608 20.4678 25.913 20.9467 24.9817V24.9923ZM29.1043 26.3575C28.8201 25.8337 28.4359 25.4368 27.9517 25.1563C27.4675 24.8758 26.9518 24.7383 26.3939 24.7383C25.836 24.7383 25.3255 24.8758 24.8571 25.1457C24.3887 25.4156 24.0098 25.8125 23.715 26.3364C23.4256 26.8603 23.2782 27.4741 23.2782 28.1885C23.2782 28.9029 23.4256 29.5273 23.715 30.0618C24.0045 30.5963 24.3887 31.009 24.8676 31.2948C25.3413 31.5805 25.8518 31.7234 26.3939 31.7234C26.936 31.7234 27.4675 31.5858 27.9517 31.3054C28.4359 31.0249 28.8201 30.628 29.1043 30.1041C29.3885 29.5802 29.5306 28.9558 29.5306 28.2308C29.5306 27.5059 29.3885 26.8761 29.1043 26.3575Z" fill="#006046"/>
<path d="M37.9514 18.3086V34.1681H34.9673V18.3086H37.9514Z" fill="#006046"/>
<path d="M51.2984 29.131H42.6618C42.7302 29.9883 43.0302 30.6603 43.5565 31.1472C44.0828 31.634 44.7302 31.8774 45.4986 31.8774C46.609 31.8774 47.3985 31.4012 47.8669 30.4434H51.0878C50.7457 31.5864 50.0931 32.5283 49.1247 33.2639C48.1564 33.9994 46.9722 34.3699 45.567 34.3699C44.4302 34.3699 43.4092 34.1159 42.5092 33.6079C41.604 33.0998 40.904 32.3802 40.3987 31.4541C39.8935 30.528 39.6409 29.4538 39.6409 28.2367C39.6409 27.0196 39.8882 25.9295 40.3882 24.9981C40.8829 24.0668 41.5829 23.3577 42.4776 22.8549C43.3723 22.3575 44.4039 22.1035 45.567 22.1035C46.7301 22.1035 47.6932 22.3469 48.5827 22.8338C49.4721 23.3206 50.1616 24.0086 50.651 24.9029C51.1405 25.7972 51.3878 26.8238 51.3878 27.9774C51.3878 28.406 51.3615 28.7923 51.3036 29.1363L51.2984 29.131ZM48.2879 27.1148C48.2721 26.3422 47.9985 25.7231 47.4564 25.2627C46.9143 24.797 46.2564 24.5642 45.4722 24.5642C44.7354 24.5642 44.1091 24.7917 43.6092 25.2415C43.1039 25.6913 42.7934 26.3158 42.6829 27.1148H48.2879Z" fill="#006046"/>
<path d="M63.019 23.4619C63.8874 24.3562 64.3189 25.5997 64.3189 27.2032V34.1671H61.3348V27.6053C61.3348 26.6634 61.098 25.9384 60.6296 25.4304C60.1612 24.9224 59.5191 24.6684 58.7086 24.6684C57.8981 24.6684 57.235 24.9224 56.756 25.4304C56.2771 25.9384 56.0403 26.6634 56.0403 27.6053V34.1671H53.0562V22.2924H56.0403V23.7741C56.4402 23.2608 56.9455 22.8586 57.5665 22.5623C58.1823 22.2712 58.8612 22.123 59.6033 22.123C61.0085 22.123 62.1453 22.5676 63.0137 23.4619H63.019Z" fill="#006046"/>
<path d="M70.1399 24.7584V30.5053C70.1399 30.9074 70.2346 31.1932 70.4293 31.3731C70.6188 31.553 70.9451 31.643 71.3977 31.643H72.7819V34.1725H70.9083C68.3926 34.1725 67.1347 32.9448 67.1347 30.4841V24.7584H65.7295V22.2924H67.1347V19.3555H70.1399V22.2924H72.7819V24.7584H70.1399Z" fill="#006046"/>
<path d="M107.181 15.6639C106.612 15.3464 106.17 14.9019 105.844 14.3198C105.523 13.743 105.36 13.071 105.36 12.3142C105.36 11.5575 105.528 10.8908 105.86 10.3087C106.191 9.73185 106.644 9.28205 107.223 8.96454C107.796 8.64703 108.438 8.48828 109.149 8.48828C109.859 8.48828 110.502 8.64703 111.075 8.96454C111.649 9.28205 112.107 9.72656 112.438 10.3087C112.77 10.8855 112.938 11.5575 112.938 12.3142C112.938 13.071 112.77 13.7377 112.428 14.3198C112.086 14.8966 111.628 15.3464 111.044 15.6639C110.465 15.9814 109.812 16.1402 109.096 16.1402C108.381 16.1402 107.749 15.9814 107.181 15.6639ZM110.044 14.2616C110.338 14.0976 110.575 13.8489 110.754 13.5208C110.933 13.1927 111.023 12.7905 111.023 12.3195C111.023 11.6157 110.838 11.076 110.47 10.695C110.102 10.3139 109.654 10.1287 109.123 10.1287C108.591 10.1287 108.144 10.3192 107.786 10.695C107.428 11.076 107.249 11.6157 107.249 12.3195C107.249 13.0233 107.423 13.5631 107.775 13.9441C108.123 14.3251 108.565 14.5103 109.096 14.5103C109.433 14.5103 109.749 14.4257 110.049 14.2616H110.044Z" fill="#006046"/>
<path d="M120.512 9.34001C121.054 9.89565 121.322 10.6735 121.322 11.6737V16.0182H119.459V11.9277C119.459 11.3403 119.312 10.8852 119.022 10.573C118.728 10.2555 118.333 10.0967 117.828 10.0967C117.322 10.0967 116.907 10.2555 116.612 10.573C116.317 10.8905 116.165 11.3403 116.165 11.9277V16.0182H114.302V8.61503H116.165V9.5358C116.412 9.21301 116.728 8.96429 117.117 8.77908C117.501 8.59916 117.928 8.50391 118.386 8.50391C119.265 8.50391 119.97 8.78437 120.512 9.34001Z" fill="#006046"/>
<path d="M129.296 9.34001C129.838 9.89565 130.106 10.6735 130.106 11.6737V16.0182H128.243V11.9277C128.243 11.3403 128.096 10.8852 127.806 10.573C127.511 10.2555 127.117 10.0967 126.611 10.0967C126.106 10.0967 125.69 10.2555 125.396 10.573C125.101 10.8905 124.948 11.3403 124.948 11.9277V16.0182H123.085V8.61503H124.948V9.5358C125.196 9.21301 125.511 8.96429 125.901 8.77908C126.285 8.59916 126.711 8.50391 127.169 8.50391C128.048 8.50391 128.753 8.78437 129.296 9.34001Z" fill="#006046"/>
<path d="M138.669 12.8791H133.285C133.327 13.4135 133.516 13.8316 133.843 14.1332C134.169 14.4349 134.574 14.5883 135.053 14.5883C135.743 14.5883 136.237 14.292 136.527 13.694H138.532C138.322 14.4084 137.911 14.9905 137.311 15.4509C136.711 15.9113 135.969 16.1388 135.09 16.1388C134.38 16.1388 133.743 15.9801 133.185 15.6626C132.622 15.345 132.185 14.9005 131.869 14.3184C131.553 13.7416 131.396 13.0696 131.396 12.3129C131.396 11.5561 131.548 10.8735 131.859 10.2967C132.169 9.71988 132.601 9.27008 133.164 8.95786C133.722 8.64565 134.364 8.49219 135.09 8.49219C135.816 8.49219 136.416 8.64565 136.969 8.94728C137.522 9.24891 137.953 9.68284 138.258 10.2385C138.564 10.7941 138.716 11.4344 138.716 12.1541C138.716 12.424 138.701 12.6621 138.664 12.8738L138.669 12.8791ZM136.795 11.6196C136.785 11.1381 136.611 10.7518 136.28 10.466C135.943 10.175 135.532 10.0321 135.043 10.0321C134.58 10.0321 134.195 10.175 133.88 10.4554C133.564 10.7359 133.374 11.1275 133.301 11.6249H136.795V11.6196Z" fill="#006046"/>
<path d="M140.064 10.3034C140.374 9.72656 140.806 9.28205 141.353 8.96454C141.9 8.64703 142.532 8.48828 143.242 8.48828C144.153 8.48828 144.911 8.71583 145.511 9.17621C146.111 9.6366 146.511 10.2769 146.716 11.1077H144.711C144.606 10.7849 144.427 10.5362 144.174 10.351C143.921 10.1658 143.611 10.0758 143.237 10.0758C142.706 10.0758 142.285 10.2716 141.974 10.6579C141.664 11.0442 141.511 11.5946 141.511 12.3089C141.511 13.0233 141.664 13.5578 141.974 13.9441C142.285 14.3304 142.706 14.5262 143.237 14.5262C143.99 14.5262 144.484 14.1875 144.711 13.5102H146.716C146.511 14.3145 146.111 14.9495 145.506 15.4205C144.906 15.8915 144.148 16.1296 143.248 16.1296C142.537 16.1296 141.911 15.9709 141.358 15.6534C140.811 15.3358 140.379 14.8913 140.069 14.3145C139.758 13.7377 139.606 13.071 139.606 12.3037C139.606 11.5363 139.758 10.8643 140.069 10.2928L140.064 10.3034Z" fill="#006046"/>
<path d="M150.248 10.1493V13.7319C150.248 13.9806 150.306 14.1605 150.427 14.2716C150.548 14.3828 150.748 14.441 151.032 14.441H151.895V16.0179H150.727C149.158 16.0179 148.374 15.2506 148.374 13.7213V10.1546H147.495V8.62002H148.374V6.78906H150.248V8.62002H151.895V10.1546H150.248V10.1493Z" fill="#006046"/>
<path d="M117.496 22.062C117.675 22.2896 117.764 22.5436 117.764 22.824C117.764 23.0675 117.701 23.2844 117.575 23.4802C117.449 23.676 117.27 23.8295 117.033 23.9406C116.796 24.0517 116.517 24.1099 116.206 24.1099H114.301V19.3262H116.117C116.443 19.3262 116.717 19.3791 116.954 19.4902C117.191 19.6013 117.364 19.7495 117.48 19.9347C117.596 20.1199 117.659 20.3263 117.659 20.5592C117.659 20.8343 117.585 21.0619 117.438 21.2471C117.291 21.4323 117.096 21.5646 116.849 21.6546C117.106 21.7022 117.322 21.8345 117.501 22.062H117.496ZM115.08 21.3423H116.043C116.301 21.3423 116.501 21.2841 116.643 21.1677C116.785 21.0513 116.859 20.882 116.859 20.6597C116.859 20.4374 116.785 20.2734 116.643 20.1517C116.501 20.03 116.301 19.9718 116.043 19.9718H115.08V21.3423ZM116.759 23.2844C116.912 23.1574 116.985 22.9775 116.985 22.75C116.985 22.5224 116.906 22.3319 116.749 22.1943C116.591 22.0567 116.375 21.9879 116.112 21.9879H115.085V23.4802H116.138C116.401 23.4802 116.612 23.4167 116.759 23.2897V23.2844Z" fill="#006046"/>
<path d="M122.138 19.332L120.564 22.3801V24.1158H119.785V22.3801L118.201 19.332H119.07L120.17 21.6816L121.269 19.332H122.133H122.138Z" fill="#006046"/>
<path d="M127.611 19.332V19.9723H126.343V24.1158H125.564V19.9723H124.291V19.332H127.611Z" fill="#006046"/>
<path d="M129.18 19.9665V21.3688H130.822V22.0091H129.18V23.4749H131.027V24.1152H128.396V19.3262H131.027V19.9665H129.18Z" fill="#006046"/>
<path d="M132.048 20.4529C132.264 20.0825 132.558 19.7915 132.932 19.5798C133.306 19.3681 133.711 19.2676 134.153 19.2676C134.658 19.2676 135.111 19.3946 135.506 19.6433C135.9 19.892 136.185 20.2466 136.364 20.7069H135.427C135.306 20.4529 135.132 20.2677 134.911 20.1407C134.69 20.0137 134.437 19.9555 134.153 19.9555C133.837 19.9555 133.558 20.0243 133.311 20.1672C133.064 20.3101 132.869 20.5111 132.732 20.781C132.595 21.0509 132.522 21.3578 132.522 21.7124C132.522 22.0669 132.59 22.3739 132.732 22.6437C132.874 22.9136 133.064 23.1147 133.311 23.2576C133.558 23.4005 133.837 23.4745 134.153 23.4745C134.443 23.4745 134.695 23.411 134.911 23.2893C135.132 23.1676 135.301 22.9771 135.427 22.7231H136.364C136.185 23.1835 135.9 23.5328 135.506 23.7815C135.111 24.0302 134.658 24.1519 134.153 24.1519C133.706 24.1519 133.295 24.0461 132.927 23.8397C132.558 23.6333 132.264 23.3423 132.048 22.9665C131.832 22.5961 131.722 22.1728 131.722 21.7071C131.722 21.2414 131.832 20.8181 132.048 20.4476V20.4529Z" fill="#006046"/>
<path d="M141.079 19.332V24.1158H140.3V22.0203H138.064V24.1158H137.285V19.332H138.064V21.3852H140.3V19.332H141.079Z" fill="#006046"/>
<path d="M142.169 20.4529C142.385 20.0825 142.679 19.7915 143.053 19.5798C143.427 19.3681 143.832 19.2676 144.274 19.2676C144.779 19.2676 145.232 19.3946 145.627 19.6433C146.021 19.892 146.306 20.2466 146.484 20.7069H145.548C145.427 20.4529 145.253 20.2677 145.032 20.1407C144.811 20.0137 144.558 19.9555 144.274 19.9555C143.958 19.9555 143.679 20.0243 143.432 20.1672C143.185 20.3101 142.99 20.5111 142.853 20.781C142.716 21.0509 142.642 21.3578 142.642 21.7124C142.642 22.0669 142.711 22.3739 142.853 22.6437C142.995 22.9136 143.185 23.1147 143.432 23.2576C143.679 23.4005 143.958 23.4745 144.274 23.4745C144.563 23.4745 144.816 23.411 145.032 23.2893C145.253 23.1676 145.421 22.9771 145.548 22.7231H146.484C146.306 23.1835 146.021 23.5328 145.627 23.7815C145.232 24.0302 144.779 24.1519 144.274 24.1519C143.827 24.1519 143.416 24.0461 143.048 23.8397C142.679 23.6333 142.385 23.3423 142.169 22.9665C141.953 22.5961 141.843 22.1728 141.843 21.7071C141.843 21.2414 141.953 20.8181 142.169 20.4476V20.4529Z" fill="#006046"/>
<path d="M148.347 23.8503C147.974 23.6439 147.679 23.3475 147.463 22.9771C147.247 22.6014 147.137 22.1834 147.137 21.7124C147.137 21.2414 147.247 20.8234 147.463 20.4529C147.679 20.0825 147.974 19.7915 148.347 19.5798C148.721 19.3681 149.126 19.2676 149.568 19.2676C150.011 19.2676 150.426 19.3734 150.8 19.5798C151.174 19.7862 151.463 20.0772 151.679 20.4529C151.895 20.8234 152 21.2467 152 21.7124C152 22.1781 151.895 22.6014 151.679 22.9771C151.463 23.3528 151.168 23.6439 150.8 23.8503C150.432 24.0566 150.016 24.1625 149.568 24.1625C149.121 24.1625 148.716 24.0566 148.347 23.8503ZM150.411 23.2629C150.658 23.12 150.847 22.9136 150.989 22.6437C151.126 22.3739 151.2 22.0616 151.2 21.7124C151.2 21.3631 151.132 21.0509 150.989 20.781C150.847 20.5111 150.658 20.3101 150.411 20.1672C150.163 20.0243 149.884 19.9555 149.568 19.9555C149.253 19.9555 148.974 20.0243 148.726 20.1672C148.479 20.3101 148.284 20.5111 148.147 20.781C148.011 21.0509 147.937 21.3578 147.937 21.7124C147.937 22.0669 148.005 22.3791 148.147 22.6437C148.284 22.9136 148.479 23.12 148.726 23.2629C148.974 23.4058 149.253 23.4798 149.568 23.4798C149.884 23.4798 150.163 23.4058 150.411 23.2629Z" fill="#006046"/>
</g>
<defs>
<clipPath id="clip0_2229_3809">
<rect width="152" height="36" fill="white"/>
</clipPath>
</defs>
</svg>
