<svg width="157" height="17" viewBox="0 0 157 17" fill="none" xmlns="http://www.w3.org/2000/svg">
<path d="M135.616 -4.97179e-05C129.661 -4.97179e-05 126.548 3.51892 124.112 6.36117C121.608 9.20342 119.983 10.8276 116.668 10.8276C113.284 10.8276 111.727 9.20342 109.224 6.36117C106.72 3.51892 103.674 -4.97179e-05 97.7192 -4.97179e-05C91.764 -4.97179e-05 88.6511 3.51892 86.2149 6.36117C83.711 9.20342 82.0868 10.8276 78.7709 10.8276C75.4549 10.8276 73.8308 9.20342 71.3269 6.36117C68.823 3.51892 65.7778 -4.97179e-05 59.8226 -4.97179e-05C53.8674 -4.97179e-05 50.7544 3.51892 48.3182 6.36117C45.8143 9.20342 44.1902 10.8276 40.8742 10.8276C37.4906 10.8276 35.9341 9.20342 33.4303 6.36117C30.9264 3.51892 27.8811 -4.97179e-05 21.9259 -4.97179e-05C15.9707 -4.97179e-05 12.8578 3.51892 10.4216 6.36117C7.647 9.20342 6.09053 10.8276 2.7069 10.8276C1.21811 10.8276 0 12.0457 0 13.5345C0 15.0233 1.21811 16.2414 2.7069 16.2414C8.66209 16.2414 11.775 12.7224 14.2112 9.88015C16.7151 7.0379 18.3393 5.41376 21.6552 5.41376C25.0389 5.41376 26.5953 7.0379 29.0992 9.88015C31.6031 12.7224 34.6484 16.2414 40.6035 16.2414C46.5587 16.2414 49.6717 12.7224 52.1079 9.88015C54.6118 7.0379 56.2359 5.41376 59.5519 5.41376C62.8678 5.41376 64.492 7.0379 66.9959 9.88015C69.4997 12.7224 72.545 16.2414 78.5002 16.2414C84.4554 16.2414 87.5683 12.7224 90.0045 9.88015C92.5084 7.0379 94.1326 5.41376 97.4485 5.41376C100.832 5.41376 102.389 7.0379 104.893 9.88015C107.396 12.7224 110.442 16.2414 116.397 16.2414C122.352 16.2414 125.465 12.7224 127.901 9.88015C130.405 7.0379 132.029 5.41376 135.345 5.41376C138.729 5.41376 140.285 7.0379 142.789 9.88015C145.293 12.7224 148.338 16.2414 154.293 16.2414C155.782 16.2414 157 15.0233 157 13.5345C157 12.0457 155.782 10.8276 154.293 10.8276C150.91 10.8276 149.353 9.20342 146.85 6.36117C144.684 3.51892 141.639 -4.97179e-05 135.616 -4.97179e-05Z" fill="white"/>
</svg>
